<?xml version="1.0" encoding="utf-8"?>
<svg viewBox="0 0 432 432" xmlns="http://www.w3.org/2000/svg">
  <g transform="matrix(1, 0, 0, 1, -1909.100341796875, -1169.4000244140625)">
    <path class="st21" d="M2056.5,1317.3c47.6-51.3,92.6-53.7,134.7,0.1c0.4,0.6,0.4,1.4-0.1,1.9c-43.3,43.9-88.2,41.2-134.4,0.1 C2056,1318.8,2056,1317.9,2056.5,1317.3z" fill="currentColor"/>
    <path class="st21" d="M2144,1444.8c-13.4,5.9-26.9,5.9-40.3,0c-0.8-0.3-1.1-1.2-0.7-2l9.6-18.9c0.3-0.6,1-0.9,1.7-0.7 c6.3,1.9,12.7,1.9,19,0c0.7-0.2,1.4,0.1,1.7,0.7l9.6,18.9C2145.1,1443.5,2144.8,1444.4,2144,1444.8z" fill="currentColor"/>
    <path class="st21" d="M2158,1475.8c-22.4,10.9-45.2,10.2-68.3,0c-0.7-0.3-1.1-1.2-0.7-2l9.3-18.6c0.3-0.7,1.1-1,1.8-0.7 c16.3,6,32.5,6.7,47.5,0.1c0.7-0.3,1.5,0,1.9,0.7l9.2,18.6C2159,1474.6,2158.7,1475.5,2158,1475.8z" fill="currentColor"/>
    <path class="st21" d="M2135.1,1374c12.2,29.8,27.3,72.8,39.8,116.2c0.7,2.5,3.7,3.4,5.7,1.8c52.2-42.4,60.5-102.1,25.4-155.8 c-1.3-2-4.1-2.2-5.7-0.4c-15.9,17.5-37.3,27.9-62.6,33.3C2135.5,1369.6,2134.3,1372,2135.1,1374z" fill="currentColor"/>
    <path class="st21" d="M2115.1,1374c-12.2,29.8-27.3,72.8-39.8,116.2c-0.7,2.5-3.7,3.4-5.7,1.8c-52.2-42.4-60.5-102.1-25.4-155.8 c1.3-2,4.1-2.2,5.7-0.4c15.9,17.5,37.3,27.9,62.6,33.3C2114.7,1369.6,2115.9,1372,2115.1,1374z" fill="currentColor"/>
  </g>
</svg>