<?xml version="1.0" encoding="utf-8"?>
<svg viewBox="0 0 432 432" xmlns="http://www.w3.org/2000/svg">
  <path class="st21" d="M 211.1 105.7 C 187.4 136.8 165.4 172.8 144.6 212.4 C 144.1 213.3 144.4 214.5 145.2 215.1 C 167.2 232.6 189.1 248.8 210.8 262.9 C 211.6 263.4 212 264.5 211.7 265.4 L 192.2 324.3 C 191.5 326.4 194.1 328.1 195.7 326.6 L 277.6 250.3 C 278.5 249.5 278.5 248 277.6 247.2 C 264.7 234.6 252.1 223.7 240.1 215 C 239.1 214.3 238.9 212.9 239.6 211.9 L 287 149.9 C 287.8 148.9 287.5 147.4 286.4 146.7 L 213.7 105.3 C 212.9 104.6 211.7 104.9 211.1 105.7 Z" fill="currentColor"/>
</svg>