<?xml version="1.0" encoding="utf-8"?>
<svg viewBox="0 0 432 432" xmlns="http://www.w3.org/2000/svg">
  <path class="st21" d="M 176.702 316.758 C 152.401 302.758 138.601 287.658 135.002 246.158 C 135.002 246.058 135.002 245.958 135.002 245.858 C 138.702 217.558 134.601 213.058 184.302 166.758 C 184.302 166.758 184.401 166.658 184.401 166.658 C 199.802 155.458 209.202 129.358 188.901 109.158 C 188.002 108.258 188.601 106.758 189.802 106.658 C 209.302 105.258 229.101 109.058 241.101 130.558 C 241.202 130.658 241.202 130.758 241.202 130.958 C 245.702 147.158 241.101 158.358 235.002 174.558 C 226.202 200.358 228.702 210.858 237.502 215.958 C 238.702 216.658 240.002 215.558 239.601 214.258 C 230.601 186.558 244.002 176.858 267.202 173.958 C 268.502 173.758 269.401 175.358 268.401 176.358 C 258.101 187.258 267.101 208.858 288.101 231.158 C 288.202 231.258 288.302 231.358 288.302 231.458 C 319.002 287.658 260.901 328.258 212.502 325.458 C 211.002 325.358 210.601 323.458 211.901 322.758 C 228.401 313.858 256.002 290.658 231.101 269.958 C 231.002 269.858 231.002 269.858 230.901 269.858 C 207.901 256.158 190.002 236.858 188.202 205.058 C 188.101 203.758 186.401 203.158 185.601 204.258 C 157.401 240.758 159.002 279.458 178.502 315.058 C 179.401 316.158 178.002 317.558 176.702 316.758 Z" fill="currentColor"/>
</svg>