<?xml version="1.0" encoding="utf-8"?>
<svg viewBox="0 0 432 432" xmlns="http://www.w3.org/2000/svg">
  <path class="st21" d="M 119.7 316.3 C 123.9 257.8 137.6 194.2 172.5 151.8 C 172.8 151.5 173.2 151.2 173.6 151.1 L 309.6 111.1 C 311.3 110.6 312.8 112.2 312.3 113.8 C 300.1 152.6 263.1 181.3 209.9 203.3 L 278.7 189.6 C 280.6 189.2 282 191.4 280.9 193 C 262.1 220.4 229.4 233.5 191.7 241.5 L 245.3 238.7 C 247.2 238.6 248.3 240.9 247 242.3 C 226.8 264.1 199.8 270.8 163.4 271.6 L 127.6 319.3 C 124.9 322.7 119.4 320.6 119.7 316.3 Z" fill="currentColor"/>
</svg>