<?xml version="1.0" encoding="utf-8"?>
<svg viewBox="0 0 432 432" xmlns="http://www.w3.org/2000/svg">
  <path class="st21" d="M 313.1 181.9 L 313.1 145.7 C 313.1 144.9 312.5 144.3 311.7 144.3 L 275.5 144.3 C 274.7 144.3 274.1 144.9 274.1 145.7 L 274.1 178 L 220.3 146.9 L 242.6 124.6 C 243.2 124 243.2 123.1 242.6 122.6 L 217 97 C 216.4 96.4 215.5 96.4 215 97 L 189.4 122.6 C 188.8 123.2 188.8 124.1 189.4 124.6 L 211.7 146.9 L 158.1 177.8 L 158.1 145.7 C 158.1 144.9 157.5 144.3 156.7 144.3 L 120.5 144.3 C 119.7 144.3 119.1 144.9 119.1 145.7 L 119.1 181.9 C 119.1 182.7 119.7 183.3 120.5 183.3 L 154.1 183.3 L 154.1 249.2 C 154.1 249.3 154.1 249.4 154.1 249.6 L 120.4 249.6 C 119.6 249.6 119 250.2 119 251 L 119 287.2 C 119 288 119.6 288.6 120.4 288.6 L 156.6 288.6 C 157.4 288.6 158 288 158 287.2 L 158 254 L 211.7 285 L 189.3 307.4 C 188.7 308 188.7 308.9 189.3 309.4 L 214.9 335 C 215.5 335.6 216.4 335.6 216.9 335 L 242.5 309.4 C 243.1 308.8 243.1 307.9 242.5 307.4 L 220.1 285 L 274 253.9 L 274 287.2 C 274 288 274.6 288.6 275.4 288.6 L 311.6 288.6 C 312.4 288.6 313 288 313 287.2 L 313 251 C 313 250.2 312.4 249.6 311.6 249.6 L 277.7 249.6 C 277.7 249.5 277.7 249.4 277.7 249.2 L 277.7 183.3 L 311.6 183.3 C 312.5 183.4 313.1 182.7 313.1 181.9 Z M 215.9 181.6 L 185.6 201.1 C 185.2 201.4 184.9 201.8 184.9 202.3 L 184.9 234.2 C 184.9 235 184.3 235.6 183.5 235.6 L 170.6 235.6 C 169.8 235.6 169.2 235 169.2 234.2 L 169.2 193.6 L 168.9 193.1 L 207.4 168.3 C 208.1 167.9 209 168.1 209.4 168.7 L 216.4 179.5 C 216.7 180.2 216.5 181.1 215.9 181.6 Z" fill="currentColor"/>
</svg>