<?xml version="1.0" encoding="utf-8"?>
<svg viewBox="0 0 432 432" xmlns="http://www.w3.org/2000/svg">
  <path class="st21" d="M 322.401 167.9 C 327.901 161.1 331.201 152.5 331.201 143.1 C 331.201 121.3 313.601 103.7 291.801 103.7 C 281.501 103.7 272.101 107.7 265.101 114.2 C 250.101 107.5 233.501 103.7 216.001 103.7 C 198.501 103.7 181.901 107.4 166.901 114.2 C 159.901 107.7 150.501 103.7 140.201 103.7 C 118.401 103.7 100.801 121.3 100.801 143.1 C 100.801 152.5 104.101 161.1 109.601 167.9 C 100.801 184.6 95.801 203.7 95.801 224 C 95.801 290.4 149.701 344.3 216.101 344.3 C 282.501 344.3 336.401 290.4 336.401 224 C 336.301 203.7 331.301 184.6 322.401 167.9 Z M 216.001 306.3 C 170.501 306.3 133.601 269.4 133.601 223.9 C 133.601 178.4 170.501 141.5 216.001 141.5 C 261.501 141.5 298.401 178.4 298.401 223.9 C 298.401 269.4 261.501 306.3 216.001 306.3 Z" fill="currentColor"/>
</svg>