<?xml version="1.0" encoding="utf-8"?>
<svg viewBox="0 0 432 432" xmlns="http://www.w3.org/2000/svg">
  <path class="st21" d="M 311.1 255.4 C 296 228.9 296 203.1 311.1 176.6 C 313.7 172 313.8 166.5 311.4 161.8 C 309 157.1 304.4 154 299.2 153.4 C 267 149.9 244.1 136.9 229.1 113.4 C 226.4 109.1 221.8 106.6 217.1 106.3 C 217 106.3 216.9 106.3 216.7 106.3 C 216.4 106.3 216.1 106.3 215.8 106.3 C 215.5 106.3 215.2 106.3 214.9 106.3 C 214.8 106.3 214.7 106.3 214.5 106.3 C 209.8 106.7 205.3 109.1 202.5 113.4 C 187.5 136.8 164.6 149.9 132.4 153.4 C 127.2 154 122.6 157.1 120.2 161.8 C 117.8 166.5 117.9 172 120.5 176.6 C 135.6 203.1 135.6 228.9 120.5 255.4 C 117.9 260.1 117.8 265.7 120.3 270.5 C 122.8 275.2 127.6 278.3 132.9 278.7 C 160.9 280.7 183.9 294.1 203.1 319.6 C 205.7 323 209.3 325 213.2 325.6 C 213.2 325.6 213.2 325.6 213.3 325.6 C 213.6 325.6 213.9 325.7 214.3 325.7 C 214.6 325.7 215 325.7 215.3 325.8 C 215.4 325.8 215.5 325.8 215.6 325.8 C 215.6 325.8 215.6 325.8 215.7 325.8 C 215.7 325.8 215.7 325.8 215.8 325.8 C 215.9 325.8 216 325.8 216.1 325.8 C 216.4 325.8 216.8 325.8 217.1 325.7 C 217.4 325.7 217.8 325.6 218.1 325.6 C 218.1 325.6 218.1 325.6 218.2 325.6 C 222.1 325 225.8 323 228.3 319.6 C 247.5 294 270.5 280.7 298.5 278.7 C 303.8 278.3 308.6 275.2 311.1 270.5 C 313.9 265.7 313.8 260 311.1 255.4 Z M 274.9 251 C 252.8 256.6 233.1 268.4 216 286.2 C 198.9 268.4 179.2 256.6 157.1 251 C 165.5 227.6 165.5 204.1 157 180.8 C 180.9 174.9 200.6 163.7 216 147.1 C 231.4 163.6 251.1 174.9 275 180.8 C 266.4 204.1 266.4 227.6 274.9 251 Z" fill="currentColor"/>
</svg>