<?xml version="1.0" encoding="utf-8"?>
<svg viewBox="0 0 432 432" xmlns="http://www.w3.org/2000/svg">
  <g transform="matrix(1, 0, 0, 1, -775.7996826171875, -1169.399658203125)">
    <path class="st21" d="M1096.4,1339.1l-58.3-58.3c-1.4-1.4-3.2-2.1-5.1-2.1h-82.4c-1.9,0-3.7,0.8-5.1,2.1l-58.3,58.3 c-1.4,1.4-2.1,3.2-2.1,5.1v82.4c0,1.9,0.8,3.7,2.1,5.1l58.3,58.3c1.4,1.4,3.2,2.1,5.1,2.1h82.4c1.9,0,3.7-0.8,5.1-2.1l58.3-58.3 c1.4-1.4,2.1-3.2,2.1-5.1v-82.4C1098.5,1342.3,1097.7,1340.5,1096.4,1339.1z M1027.9,1298.9c29.8,0.5,46.4,15.4,47.8,46.8 c0.1,1.3-1.5,2-2.5,1.1l-46.4-45.4C1026,1300.4,1026.6,1298.9,1027.9,1298.9z M978.5,1475.1c-53.2-1.6-78.1-29.4-78.3-80 c0-1.3,1.6-1.9,2.5-1l76.9,78.5C980.5,1473.6,979.8,1475.1,978.5,1475.1z M1005.1,1475.1c-1.3,0-2-1.5-1.1-2.5l76.9-78.5 c0.9-0.9,2.5-0.3,2.5,1C1083.2,1445.7,1058.3,1473.5,1005.1,1475.1z" fill="currentColor"/>
  </g>
</svg>