<?xml version="1.0" encoding="utf-8"?>
<svg viewBox="0 0 432 432" xmlns="http://www.w3.org/2000/svg">
  <path class="st21" d="M 281.2 231.8 C 281.2 231.7 281.1 231.6 281 231.5 C 251.4 179.8 235 140 219.4 96 C 218.3 92.8 213.8 92.8 212.6 96 C 197 140 180.6 179.8 151 231.5 C 150.9 231.6 150.9 231.7 150.8 231.8 C 119.9 299.3 179.7 339.2 216 338.3 C 252.2 339.3 312.1 299.3 281.2 231.8 Z M 270.9 284.9 C 260.5 302.6 242.1 318.4 215.6 320 C 215.9 320 215.3 320 215.6 320 C 193.3 319.3 173.4 306.5 162 286 C 160.1 282.5 163.5 278.5 167.3 279.9 C 198.7 291.7 235.6 290.5 265.5 278.7 C 269.4 277.2 273 281.3 270.9 284.9 Z" fill="currentColor"/>
</svg>