<?xml version="1.0" encoding="utf-8"?>
<svg viewBox="0 0 400 400" xmlns="http://www.w3.org/2000/svg">
    <ellipse style="stroke: rgb(0, 0, 0); stroke-opacity: 0; fill: rgb(229, 94, 63);" cx="200" cy="200" rx="200" ry="200" transform="matrix(1, 0, 0, 1, 0, -1.4210854715202004e-14)"/>
    <ellipse style="fill: rgb(216, 216, 216); fill-opacity: 0; stroke: rgb(246, 200, 83); stroke-width: 20px;" cx="200" cy="200" rx="170" ry="170" transform="matrix(1, 0, 0, 1, 0, -1.4210854715202004e-14)"/>
    <g style="" transform="matrix(0.8677420616149902, 0, 0, 0.8677420616149902, 27.0919189453125, 28.10299682617186)">
        <path style="stroke: rgb(0, 0, 0); fill: rgb(246, 200, 83); stroke-opacity: 0;" d="M 95.253 121.478 L 166.593 140.71 L 198.23 86.119 L 226.765 142.57 L 296.243 123.339 L 274.531 172.967 L 339.666 195.919 L 276.392 220.112 L 298.724 274.082 L 232.968 253.61 L 201.331 301.997 L 167.213 252.99 L 100.216 272.841 L 120.688 225.695 C 120.688 225.695 57.413 197.78 57.413 198.4 C 57.413 199.02 125.65 171.726 125.65 171.726 L 95.253 121.478 Z"/>
        <path style="stroke: rgb(0, 0, 0); stroke-opacity: 0; fill: rgb(229, 94, 63);" d="M 125.577 143.767 L 174.134 156.858 L 195.668 119.701 L 215.09 158.124 L 262.38 145.034 L 247.601 178.813 L 291.935 194.435 L 248.868 210.902 L 264.068 247.637 L 219.312 233.703 L 197.778 266.637 L 174.556 233.281 L 128.955 246.792 L 142.889 214.702 C 142.889 214.702 99.821 195.702 99.821 196.124 C 99.821 196.546 146.266 177.969 146.266 177.969 L 125.577 143.767 Z"/>
    </g>
</svg>