<svg version="1.0" xmlns="http://www.w3.org/2000/svg"
     viewBox="0 0 1200.000000 1200.000000"
     preserveAspectRatio="xMidYMid meet">
    <g transform="translate(0.000000,1200.000000) scale(0.100000,-0.100000)"
       fill="currentColor" stroke="none">
        <path d="M5761 10072 c-128 -559 -241 -1031 -250 -1049 -9 -17 -124 -150 -256
        -295 -132 -144 -321 -353 -420 -463 -99 -110 -198 -219 -220 -243 l-40 -43
        -265 81 c-146 44 -346 106 -445 136 -99 31 -200 62 -225 69 -25 7 -133 40
        -240 73 -285 88 -790 243 -825 253 -27 8 -24 3 30 -49 55 -52 579 -541 1172
        -1091 l232 -216 0 -1235 0 -1235 -226 -210 c-124 -115 -269 -250 -322 -300
        -53 -49 -251 -234 -441 -410 -483 -448 -482 -447 -445 -436 17 5 165 50 330
        101 165 50 408 125 540 165 132 40 353 108 490 150 138 42 338 104 445 136
        l195 60 40 -44 c22 -23 121 -133 220 -242 99 -110 207 -229 240 -265 171 -187
        422 -465 434 -483 8 -11 34 -108 59 -216 204 -900 427 -1861 432 -1861 5 0
        300 1270 431 1855 22 99 44 190 49 202 5 13 76 96 157 185 82 90 168 186 193
        214 25 28 135 149 245 270 110 120 233 256 274 302 49 55 79 81 90 78 9 -2
        180 -55 381 -116 201 -61 417 -127 480 -146 63 -20 149 -46 190 -59 41 -13
        233 -72 425 -130 193 -58 390 -119 440 -135 49 -16 91 -28 92 -26 3 3 -324
        309 -747 701 -47 44 -211 197 -364 340 -153 143 -293 273 -312 288 l-34 29 0
        1238 0 1238 34 29 c19 15 159 145 312 288 153 143 317 296 364 340 317 293
        750 698 750 700 0 2 -244 -71 -845 -255 -288 -88 -374 -114 -930 -285 l-250
        -76 -40 43 c-22 24 -164 180 -315 348 -151 167 -340 375 -420 463 -80 87 -152
        173 -161 190 -9 18 -122 490 -250 1049 -129 560 -236 1018 -239 1018 -3 0
        -110 -458 -239 -1018z m335 -2379 c49 -54 105 -116 125 -138 21 -22 163 -179
        318 -350 l281 -310 0 -895 0 -895 -406 -447 c-223 -247 -410 -448 -414 -448
        -4 0 -191 201 -414 448 l-406 447 0 895 0 895 406 448 c223 246 409 447 414
        447 4 0 47 -44 96 -97z"/>
    </g>
</svg>
